<?xml version="1.0" encoding="utf-8"?>
<!-- Generator: Adobe Illustrator 16.0.3, SVG Export Plug-In . SVG Version: 6.00 Build 0)  -->
<!DOCTYPE svg PUBLIC "-//W3C//DTD SVG 1.1//EN" "http://www.w3.org/Graphics/SVG/1.1/DTD/svg11.dtd">
<svg version="1.1" xmlns="http://www.w3.org/2000/svg" xmlns:xlink="http://www.w3.org/1999/xlink" x="0px" y="0px"
	 width="73.508px" height="79.142px" viewBox="0 0 73.508 79.142" enable-background="new 0 0 73.508 79.142" xml:space="preserve">
<g id="BACKGROUND">
</g>
<g id="OBJECTS">
	<path fill="#FFFFFF" d="M38.373,24.011c-0.445,0.538-0.904,1.064-1.334,1.614c-2.482,3.188-3.393,6.822-2.843,10.782
		c0.146,1.046,0.796,2.019,1.178,3.038c0.126,0.338,0.14,0.718,0.204,1.079c-0.362,0.006-0.758,0.11-1.082,0.003
		c-2.928-0.966-4.846-4.313-4.239-7.505c0.854-4.503,3.204-8.034,7.036-10.587c1.623-1.081,3.258-1.267,5.011-0.39
		c0.695,0.348,1.063,0.824,1.06,1.66c-0.02,8.119-0.003,16.238-0.015,24.357c-0.003,2.034-0.253,4.04-1.142,5.901
		c-0.75,1.569-1.785,2.904-3.449,3.6c-0.293,0.122-0.664,0.062-0.998,0.086c-0.011-0.303-0.113-0.639-0.018-0.903
		c1.01-2.791,1.045-5.695,1.057-8.606c0.027-7.552,0.062-15.104,0.088-22.656c0.002-0.406-0.043-0.813-0.066-1.219
		C38.672,24.181,38.522,24.096,38.373,24.011z"/>
</g>
<g id="DESIGNED_BY_FREEPIK">
</g>
</svg>
